inDegrees=no
num_controls=7
num_derivatives=13
num_iterations=123
num_multipliers=7
num_parameters=0
num_slacks=7
num_states=26
objective=0.477716
objective_accelerations=0.043709
objective_balance=0.003603
objective_effort=0.039897
objective_height=0.384811
objective_ligament=0.005697
solver_duration=1583.728299
status=Solve_Succeeded
success=true
DataType=double
version=3
OpenSimVersion=4.5
endheader
time	/jointset/ground_pelvis/pelvis_tilt/value	/jointset/ground_pelvis/pelvis_tx/value	/jointset/ground_pelvis/pelvis_ty/value	/jointset/hip_l/hip_flexion_l/value	/jointset/hip_l/hip_adduction_l/value	/jointset/hip_l/hip_rotation_l/value	/jointset/back/lumbar_extension/value	/jointset/patellofemoral_l/patellar_flexion_l/value	/jointset/knee_l/knee_flexion_l/value	/jointset/knee_l/knee_adduction_l/value	/jointset/knee_l/knee_rotation_l/value	/jointset/ankle_l/ankle_angle_l/value	/jointset/subtalar_l/subtalar_angle_l/value	/jointset/ground_pelvis/pelvis_tilt/speed	/jointset/ground_pelvis/pelvis_tx/speed	/jointset/ground_pelvis/pelvis_ty/speed	/jointset/hip_l/hip_flexion_l/speed	/jointset/hip_l/hip_adduction_l/speed	/jointset/hip_l/hip_rotation_l/speed	/jointset/back/lumbar_extension/speed	/jointset/patellofemoral_l/patellar_flexion_l/speed	/jointset/knee_l/knee_flexion_l/speed	/jointset/knee_l/knee_adduction_l/speed	/jointset/knee_l/knee_rotation_l/speed	/jointset/ankle_l/ankle_angle_l/speed	/jointset/subtalar_l/subtalar_angle_l/speed	/forceset/tau_hip_flexion_l	/forceset/tau_hip_adduction_l	/forceset/tau_hip_rotation_l	/forceset/tau_knee_flexion_l	/forceset/tau_ankle_angle_l	/forceset/tau_subtalar_angle_l	/forceset/tau_lumbar_extension	lambda_cid13_p0	lambda_cid13_p1	lambda_cid13_p2	lambda_cid13_p3	lambda_cid13_p4	lambda_cid13_p5	lambda_cid14_p0	/jointset/ground_pelvis/pelvis_tilt/accel	/jointset/ground_pelvis/pelvis_tx/accel	/jointset/ground_pelvis/pelvis_ty/accel	/jointset/hip_l/hip_flexion_l/accel	/jointset/hip_l/hip_adduction_l/accel	/jointset/hip_l/hip_rotation_l/accel	/jointset/back/lumbar_extension/accel	/jointset/patellofemoral_l/patellar_flexion_l/accel	/jointset/knee_l/knee_flexion_l/accel	/jointset/knee_l/knee_adduction_l/accel	/jointset/knee_l/knee_rotation_l/accel	/jointset/ankle_l/ankle_angle_l/accel	/jointset/subtalar_l/subtalar_angle_l/accel	gamma_cid13_p0	gamma_cid13_p1	gamma_cid13_p2	gamma_cid13_p3	gamma_cid13_p4	gamma_cid13_p5	gamma_cid14_p0
0	-0.03671906585731917	0.0566322458724834	0.9203434624944753	0.3085816938045678	-0.2956104681630604	-0.3009529242537701	-0.3879492264334186	0.2499269421185244	0.2499269421184919	-0.1745319912484001	-0.1738906565188671	-0.0008036623358878681	0.0004603083795253042	0	0	0	0	0	0	0	0	0	0	0	0	0	0.06931532748924651	-0.03842405186706826	-0.0197886181542186	-0.2424342603282474	0.1937385027984847	-0.02218086530429983	0.005719788838346403	18.44668356069612	3.78254098571814	1.936154011130297	8.331572538296793	-623.7630947423827	-66.67822397289301	-23.1751586152077	-0.933989208326777	-1.958611778025585	-0.9016634301518148	9.056239283272431	-0.8214300468128518	3.27026581591293	-7.113321131560703	9.297303302248974	9.297303302256697	1.279802782795055	-0.09019766503349981	1.700983743377739	-0.3031247103580521	-2.643287258495002e-09	1.753914950626138e-07	4.543036991119408e-08	1.993504269408668e-09	8.552235429433514e-08	1.532610589070203e-08	9.154190974613766e-09
0.01	-0.03676217917959575	0.0565356609117038	0.9202993211806237	0.3090234169324021	-0.2956519026288487	-0.3007889518957618	-0.3883043750730807	0.2503829326694267	0.2503829326693905	-0.1744719026703469	-0.1738921691107054	-0.0007207199885255163	0.0004440419908353274	-0.008587896354156009	-0.01920051818308092	-0.008799534825013703	0.08792706294411667	-0.008266523269549918	0.03262138974692338	-0.0706297626075741	0.09081675592945884	0.09081675592946559	0.0119253973728832	-0.0003384187012887876	0.01655530811207827	-0.003242055477519223	0.06528719997711535	-0.04735739947555839	-0.01929866561872945	-0.2399586791570923	0.188651903849123	-0.01137803952635987	0.009763618591733584	17.12874225322771	-0.601155341460344	2.54684396208739	7.665830231914462	-626.0307490207697	-75.58158772839063	-23.18045795587812	-0.8159818426442251	-1.883300346119456	-0.8647722124699985	8.598299593920919	-0.8262428555427193	3.232115383988492	-6.977809024974841	8.916656770262231	8.916656770258292	1.135095238299031	-0.0110472628826229	1.627833879108673	-0.3330956722640431	-3.139225662942808e-08	1.435666414492268e-07	1.363055681904271e-07	2.116270194990277e-08	-1.062947651544939e-08	-4.75660016095594e-08	-5.251169680131495e-09
0.02	-0.0368901298641886	0.05625056506755673	0.920168049777763	0.3103318826484567	-0.2957753982050366	-0.3003039576743043	-0.38935382237875	0.2517356497860173	0.2517356497860144	-0.1742953227136887	-0.1738981425475935	-0.0004732186532460628	0.0003956851062070253	-0.0169674724555333	-0.03770217667349484	-0.01742601780182901	0.1733485176457967	-0.01641222207977659	0.06420437269010376	-0.1388597331997811	0.1793453131376355	0.1793453131376088	0.02329827569632892	-0.0008921690108249777	0.03291179758357867	-0.006418099187651329	0.06125907246513604	-0.05629074708402815	-0.01880871308322267	-0.2374830979858488	0.1835653048998041	-0.0005752137483843846	0.01380744834520971	15.88270718525287	-4.995977401586329	3.157634769782716	6.885146146322399	-627.2265586830833	-84.39537895892131	-23.19612342552793	-0.8923251577700984	-1.818839839493007	-0.8670530605121586	8.555117634785196	-0.7972651549482733	3.062584455164302	-6.633362728486732	8.839663557992704	8.839663557992377	1.169298972907461	-0.1332639866831218	1.661220015261235	-0.2899223568810248	-6.014122600036116e-08	1.117417878358396e-07	2.271807664696602e-07	4.033189963039688e-08	-1.067813073252339e-07	-1.104581091098208e-07	-1.965653033487676e-08
0.03	-0.03710071443337674	0.05578425498154762	0.9199512886049719	0.3124813920420951	-0.2959791480561971	-0.2995086238573034	-0.3910717124792201	0.2539616341648834	0.2539616341648653	-0.1740070332240631	-0.1739105149283106	-6.29333133363681e-05	0.000316583300994585	-0.0250811967166132	-0.05541277071754356	-0.02590270885596049	0.2560459747805884	-0.02426352948532277	0.09471806277753747	-0.2041573143184179	0.2654065062182061	0.2654065062182077	0.03432506121220303	-0.001541580803947508	0.04913576543155941	-0.009328528133549095	0.05393486710202346	-0.04910335136993178	-0.01797796368380124	-0.2316842075475548	0.1791468586604982	-0.003001214208304522	0.0204720549854363	14.30441308305035	-3.746407722663506	3.050244036083193	6.71037483179235	-629.2247510380287	-80.83688542918277	-23.221585454336	-0.7606664707820532	-1.725100573643934	-0.8344726875895935	8.050942041531219	-0.767977615680808	3.024082290699803	-6.393809915604884	8.422592710630317	8.42259271063466	1.064225587181602	-0.02463481309119342	1.601559513008012	-0.2805868275979582	-8.303614756537125e-08	1.135368633297578e-07	2.744817601585131e-07	6.688776872908378e-08	-2.100016226496999e-07	-1.412736644199298e-07	-2.394222560972076e-08
